<?xml version="1.0" encoding="UTF-8"?>
<svg width="841px" height="122px" viewBox="0 0 841 122" version="1.1" xmlns="http://www.w3.org/2000/svg" xmlns:xlink="http://www.w3.org/1999/xlink">
    <!-- Generator: Sketch 52.5 (67469) - http://www.bohemiancoding.com/sketch -->
    <title>Desktop Copy 2</title>
    <desc>Created with Sketch.</desc>
    <defs>
        <rect id="path-1" x="0" y="0" width="175" height="53" rx="26.5"></rect>
        <rect id="path-3" x="0" y="0" width="175" height="53" rx="26.5"></rect>
        <rect id="path-5" x="0" y="0" width="175" height="53" rx="26.5"></rect>
        <rect id="path-7" x="0" y="0" width="174" height="53" rx="26.5"></rect>
        <rect id="path-9" x="0" y="0" width="174" height="53" rx="26.5"></rect>
        <linearGradient x1="0%" y1="0%" x2="96.4566546%" y2="0%" id="linearGradient-11">
            <stop stop-color="#5141B4" offset="0%"></stop>
            <stop stop-color="#FD5F5F" offset="100%"></stop>
        </linearGradient>
        <linearGradient x1="0%" y1="0%" x2="96.4566546%" y2="0%" id="linearGradient-12">
            <stop stop-color="#FD5F5F" offset="0%"></stop>
            <stop stop-color="#41B45C" offset="100%"></stop>
        </linearGradient>
        <linearGradient x1="0%" y1="107.437559%" x2="102.991765%" y2="0%" id="linearGradient-13">
            <stop stop-color="#4179B4" offset="0%"></stop>
            <stop stop-color="#5141B4" offset="100%"></stop>
        </linearGradient>
        <linearGradient x1="0%" y1="107.437559%" x2="101.447633%" y2="1.6107871%" id="linearGradient-14">
            <stop stop-color="#4179B4" offset="0%"></stop>
            <stop stop-color="#5141B4" offset="100%"></stop>
        </linearGradient>
    </defs>
    <g id="Desktop-Copy-2" stroke="none" stroke-width="1" fill="none" fill-rule="evenodd">
        <g id="Rectangle-Copy-2-+-Rectangle-Copy-Mask-Copy" transform="translate(256.000000, 36.000000)">
            <mask id="mask-2" fill="white">
                <use xlink:href="#path-1"></use>
            </mask>
            <g id="Mask"></g>
            <rect id="Rectangle-Copy-2" stroke="#5141B4" stroke-width="3" mask="url(#mask-2)" x="1.5" y="1.5" width="172" height="50" rx="25"></rect>
            <g id="Group" mask="url(#mask-2)" stroke="#5141B4" stroke-opacity="0.270946558" stroke-width="2">
                <g transform="translate(-21.000000, -27.000000)">
                    <path d="M28.3531955,-3.16436792 L28.3531955,-3.16436792 C30.6192135,-3.17102202 32.4615782,-1.33944571 32.4682323,0.926572272 C32.4682476,0.931773579 32.468253,0.936974911 32.4682485,0.942176239 L32.3843618,97.7419975 C32.3823884,100.019188 30.539352,101.866043 28.2621705,101.87273 L28.2621705,101.87273 C25.9961525,101.879384 24.1537878,100.047808 24.1471337,97.7817899 C24.1471184,97.7765886 24.147113,97.7713873 24.1471175,97.7661859 L24.2310041,0.96636467 C24.2329776,-1.31082582 26.076014,-3.15768105 28.3531955,-3.16436792 Z" id="Rectangle-Copy" transform="translate(28.307683, 49.354181) rotate(27.000000) translate(-28.307683, -49.354181) "></path>
                    <path d="M48.711023,-3.16436792 L48.711023,-3.16436792 C50.977041,-3.17102202 52.8194057,-1.33944571 52.8260598,0.926572272 C52.8260751,0.931773579 52.8260805,0.936974911 52.826076,0.942176239 L52.7421893,97.7419975 C52.7402159,100.019188 50.8971795,101.866043 48.6199979,101.87273 L48.6199979,101.87273 C46.35398,101.879384 44.5116152,100.047808 44.5049611,97.7817899 C44.5049459,97.7765886 44.5049405,97.7713873 44.504945,97.7661859 L44.5888316,0.96636467 C44.590805,-1.31082582 46.4338415,-3.15768105 48.711023,-3.16436792 Z" id="Rectangle-Copy-3" transform="translate(48.665510, 49.354181) rotate(27.000000) translate(-48.665510, -49.354181) "></path>
                    <path d="M68.3148569,-3.16436792 L68.3148569,-3.16436792 C70.5808748,-3.17102202 72.4232396,-1.33944571 72.4298937,0.926572272 C72.4299089,0.931773579 72.4299143,0.936974911 72.4299098,0.942176239 L72.3460232,97.7419975 C72.3440498,100.019188 70.5010133,101.866043 68.2238318,101.87273 L68.2238318,101.87273 C65.9578138,101.879384 64.1154491,100.047808 64.108795,97.7817899 C64.1087797,97.7765886 64.1087743,97.7713873 64.1087789,97.7661859 L64.1926655,0.96636467 C64.1946389,-1.31082582 66.0376753,-3.15768105 68.3148569,-3.16436792 Z" id="Rectangle-Copy-4" transform="translate(68.269344, 49.354181) rotate(27.000000) translate(-68.269344, -49.354181) "></path>
                    <path d="M88.6726843,-3.16436792 L88.6726843,-3.16436792 C90.9387023,-3.17102202 92.7810671,-1.33944571 92.7877212,0.926572272 C92.7877364,0.931773579 92.7877418,0.936974911 92.7877373,0.942176239 L92.7038507,97.7419975 C92.7018773,100.019188 90.8588408,101.866043 88.5816593,101.87273 L88.5816593,101.87273 C86.3156413,101.879384 84.4732766,100.047808 84.4666225,97.7817899 C84.4666072,97.7765886 84.4666018,97.7713873 84.4666063,97.7661859 L84.550493,0.96636467 C84.5524664,-1.31082582 86.3955028,-3.15768105 88.6726843,-3.16436792 Z" id="Rectangle-Copy-5" transform="translate(88.627172, 49.354181) rotate(27.000000) translate(-88.627172, -49.354181) "></path>
                    <path d="M108.276518,-3.16436792 L108.276518,-3.16436792 C110.542536,-3.17102202 112.384901,-1.33944571 112.391555,0.926572272 C112.39157,0.931773579 112.391576,0.936974911 112.391571,0.942176239 L112.307685,97.7419975 C112.305711,100.019188 110.462675,101.866043 108.185493,101.87273 L108.185493,101.87273 C105.919475,101.879384 104.07711,100.047808 104.070456,97.7817899 C104.070441,97.7765886 104.070436,97.7713873 104.07044,97.7661859 L104.154327,0.96636467 C104.1563,-1.31082582 105.999337,-3.15768105 108.276518,-3.16436792 Z" id="Rectangle-Copy-6" transform="translate(108.231006, 49.354181) rotate(27.000000) translate(-108.231006, -49.354181) "></path>
                    <path d="M127.880352,-3.16436792 L127.880352,-3.16436792 C130.14637,-3.17102202 131.988735,-1.33944571 131.995389,0.926572272 C131.995404,0.931773579 131.99541,0.936974911 131.995405,0.942176239 L131.911518,97.7419975 C131.909545,100.019188 130.066509,101.866043 127.789327,101.87273 L127.789327,101.87273 C125.523309,101.879384 123.680944,100.047808 123.67429,97.7817899 C123.674275,97.7765886 123.67427,97.7713873 123.674274,97.7661859 L123.758161,0.96636467 C123.760134,-1.31082582 125.603171,-3.15768105 127.880352,-3.16436792 Z" id="Rectangle-Copy-7" transform="translate(127.834840, 49.354181) rotate(27.000000) translate(-127.834840, -49.354181) "></path>
                    <path d="M148.23818,-3.16436792 L148.23818,-3.16436792 C150.504198,-3.17102202 152.346562,-1.33944571 152.353216,0.926572272 C152.353232,0.931773579 152.353237,0.936974911 152.353233,0.942176239 L152.269346,97.7419975 C152.267372,100.019188 150.424336,101.866043 148.147154,101.87273 L148.147154,101.87273 C145.881137,101.879384 144.038772,100.047808 144.032118,97.7817899 C144.032102,97.7765886 144.032097,97.7713873 144.032102,97.7661859 L144.115988,0.96636467 C144.117962,-1.31082582 145.960998,-3.15768105 148.23818,-3.16436792 Z" id="Rectangle-Copy-8" transform="translate(148.192667, 49.354181) rotate(27.000000) translate(-148.192667, -49.354181) "></path>
                    <path d="M167.842013,-3.16436792 L167.842013,-3.16436792 C170.108031,-3.17102202 171.950396,-1.33944571 171.95705,0.926572272 C171.957065,0.931773579 171.957071,0.936974911 171.957066,0.942176239 L171.87318,97.7419975 C171.871206,100.019188 170.02817,101.866043 167.750988,101.87273 L167.750988,101.87273 C165.48497,101.879384 163.642606,100.047808 163.635952,97.7817899 C163.635936,97.7765886 163.635931,97.7713873 163.635935,97.7661859 L163.719822,0.96636467 C163.721795,-1.31082582 165.564832,-3.15768105 167.842013,-3.16436792 Z" id="Rectangle-Copy-9" transform="translate(167.796501, 49.354181) rotate(27.000000) translate(-167.796501, -49.354181) "></path>
                    <path d="M188.199841,-3.16436792 L188.199841,-3.16436792 C190.465859,-3.17102202 192.308224,-1.33944571 192.314878,0.926572272 C192.314893,0.931773579 192.314898,0.936974911 192.314894,0.942176239 L192.231007,97.7419975 C192.229034,100.019188 190.385997,101.866043 188.108816,101.87273 L188.108816,101.87273 C185.842798,101.879384 184.000433,100.047808 183.993779,97.7817899 C183.993764,97.7765886 183.993758,97.7713873 183.993763,97.7661859 L184.07765,0.96636467 C184.079623,-1.31082582 185.922659,-3.15768105 188.199841,-3.16436792 Z" id="Rectangle-Copy-10" transform="translate(188.154328, 49.354181) rotate(27.000000) translate(-188.154328, -49.354181) "></path>
                    <path d="M209.311662,-3.16436792 L209.311662,-3.16436792 C211.57768,-3.17102202 213.420045,-1.33944571 213.426699,0.926572272 C213.426714,0.931773579 213.426719,0.936974911 213.426715,0.942176239 L213.342828,97.7419975 C213.340855,100.019188 211.497818,101.866043 209.220637,101.87273 L209.220637,101.87273 C206.954619,101.879384 205.112254,100.047808 205.1056,97.7817899 C205.105585,97.7765886 205.105579,97.7713873 205.105584,97.7661859 L205.189471,0.96636467 C205.191444,-1.31082582 207.03448,-3.15768105 209.311662,-3.16436792 Z" id="Rectangle-Copy-11" transform="translate(209.266149, 49.354181) rotate(27.000000) translate(-209.266149, -49.354181) "></path>
                </g>
            </g>
        </g>
        <g id="Rectangle-Copy-2-+-Rectangle-Copy-Mask-Copy-Copy" transform="translate(461.000000, 36.000000)">
            <mask id="mask-4" fill="white">
                <use xlink:href="#path-3"></use>
            </mask>
            <g id="Mask"></g>
            <rect id="Rectangle-Copy-2" stroke="#FD5F5F" stroke-width="3" mask="url(#mask-4)" x="1.5" y="1.5" width="172" height="50" rx="25"></rect>
            <g id="Group" mask="url(#mask-4)" stroke="#FD5F5F" stroke-opacity="0.270946558" stroke-width="2">
                <g transform="translate(-21.000000, -27.000000)">
                    <path d="M28.3531955,-3.16436792 L28.3531955,-3.16436792 C30.6192135,-3.17102202 32.4615782,-1.33944571 32.4682323,0.926572272 C32.4682476,0.931773579 32.468253,0.936974911 32.4682485,0.942176239 L32.3843618,97.7419975 C32.3823884,100.019188 30.539352,101.866043 28.2621705,101.87273 L28.2621705,101.87273 C25.9961525,101.879384 24.1537878,100.047808 24.1471337,97.7817899 C24.1471184,97.7765886 24.147113,97.7713873 24.1471175,97.7661859 L24.2310041,0.96636467 C24.2329776,-1.31082582 26.076014,-3.15768105 28.3531955,-3.16436792 Z" id="Rectangle-Copy" transform="translate(28.307683, 49.354181) rotate(27.000000) translate(-28.307683, -49.354181) "></path>
                    <path d="M48.711023,-3.16436792 L48.711023,-3.16436792 C50.977041,-3.17102202 52.8194057,-1.33944571 52.8260598,0.926572272 C52.8260751,0.931773579 52.8260805,0.936974911 52.826076,0.942176239 L52.7421893,97.7419975 C52.7402159,100.019188 50.8971795,101.866043 48.6199979,101.87273 L48.6199979,101.87273 C46.35398,101.879384 44.5116152,100.047808 44.5049611,97.7817899 C44.5049459,97.7765886 44.5049405,97.7713873 44.504945,97.7661859 L44.5888316,0.96636467 C44.590805,-1.31082582 46.4338415,-3.15768105 48.711023,-3.16436792 Z" id="Rectangle-Copy-3" transform="translate(48.665510, 49.354181) rotate(27.000000) translate(-48.665510, -49.354181) "></path>
                    <path d="M68.3148569,-3.16436792 L68.3148569,-3.16436792 C70.5808748,-3.17102202 72.4232396,-1.33944571 72.4298937,0.926572272 C72.4299089,0.931773579 72.4299143,0.936974911 72.4299098,0.942176239 L72.3460232,97.7419975 C72.3440498,100.019188 70.5010133,101.866043 68.2238318,101.87273 L68.2238318,101.87273 C65.9578138,101.879384 64.1154491,100.047808 64.108795,97.7817899 C64.1087797,97.7765886 64.1087743,97.7713873 64.1087789,97.7661859 L64.1926655,0.96636467 C64.1946389,-1.31082582 66.0376753,-3.15768105 68.3148569,-3.16436792 Z" id="Rectangle-Copy-4" transform="translate(68.269344, 49.354181) rotate(27.000000) translate(-68.269344, -49.354181) "></path>
                    <path d="M88.6726843,-3.16436792 L88.6726843,-3.16436792 C90.9387023,-3.17102202 92.7810671,-1.33944571 92.7877212,0.926572272 C92.7877364,0.931773579 92.7877418,0.936974911 92.7877373,0.942176239 L92.7038507,97.7419975 C92.7018773,100.019188 90.8588408,101.866043 88.5816593,101.87273 L88.5816593,101.87273 C86.3156413,101.879384 84.4732766,100.047808 84.4666225,97.7817899 C84.4666072,97.7765886 84.4666018,97.7713873 84.4666063,97.7661859 L84.550493,0.96636467 C84.5524664,-1.31082582 86.3955028,-3.15768105 88.6726843,-3.16436792 Z" id="Rectangle-Copy-5" transform="translate(88.627172, 49.354181) rotate(27.000000) translate(-88.627172, -49.354181) "></path>
                    <path d="M108.276518,-3.16436792 L108.276518,-3.16436792 C110.542536,-3.17102202 112.384901,-1.33944571 112.391555,0.926572272 C112.39157,0.931773579 112.391576,0.936974911 112.391571,0.942176239 L112.307685,97.7419975 C112.305711,100.019188 110.462675,101.866043 108.185493,101.87273 L108.185493,101.87273 C105.919475,101.879384 104.07711,100.047808 104.070456,97.7817899 C104.070441,97.7765886 104.070436,97.7713873 104.07044,97.7661859 L104.154327,0.96636467 C104.1563,-1.31082582 105.999337,-3.15768105 108.276518,-3.16436792 Z" id="Rectangle-Copy-6" transform="translate(108.231006, 49.354181) rotate(27.000000) translate(-108.231006, -49.354181) "></path>
                    <path d="M127.880352,-3.16436792 L127.880352,-3.16436792 C130.14637,-3.17102202 131.988735,-1.33944571 131.995389,0.926572272 C131.995404,0.931773579 131.99541,0.936974911 131.995405,0.942176239 L131.911518,97.7419975 C131.909545,100.019188 130.066509,101.866043 127.789327,101.87273 L127.789327,101.87273 C125.523309,101.879384 123.680944,100.047808 123.67429,97.7817899 C123.674275,97.7765886 123.67427,97.7713873 123.674274,97.7661859 L123.758161,0.96636467 C123.760134,-1.31082582 125.603171,-3.15768105 127.880352,-3.16436792 Z" id="Rectangle-Copy-7" transform="translate(127.834840, 49.354181) rotate(27.000000) translate(-127.834840, -49.354181) "></path>
                    <path d="M148.23818,-3.16436792 L148.23818,-3.16436792 C150.504198,-3.17102202 152.346562,-1.33944571 152.353216,0.926572272 C152.353232,0.931773579 152.353237,0.936974911 152.353233,0.942176239 L152.269346,97.7419975 C152.267372,100.019188 150.424336,101.866043 148.147154,101.87273 L148.147154,101.87273 C145.881137,101.879384 144.038772,100.047808 144.032118,97.7817899 C144.032102,97.7765886 144.032097,97.7713873 144.032102,97.7661859 L144.115988,0.96636467 C144.117962,-1.31082582 145.960998,-3.15768105 148.23818,-3.16436792 Z" id="Rectangle-Copy-8" transform="translate(148.192667, 49.354181) rotate(27.000000) translate(-148.192667, -49.354181) "></path>
                    <path d="M167.842013,-3.16436792 L167.842013,-3.16436792 C170.108031,-3.17102202 171.950396,-1.33944571 171.95705,0.926572272 C171.957065,0.931773579 171.957071,0.936974911 171.957066,0.942176239 L171.87318,97.7419975 C171.871206,100.019188 170.02817,101.866043 167.750988,101.87273 L167.750988,101.87273 C165.48497,101.879384 163.642606,100.047808 163.635952,97.7817899 C163.635936,97.7765886 163.635931,97.7713873 163.635935,97.7661859 L163.719822,0.96636467 C163.721795,-1.31082582 165.564832,-3.15768105 167.842013,-3.16436792 Z" id="Rectangle-Copy-9" transform="translate(167.796501, 49.354181) rotate(27.000000) translate(-167.796501, -49.354181) "></path>
                    <path d="M188.199841,-3.16436792 L188.199841,-3.16436792 C190.465859,-3.17102202 192.308224,-1.33944571 192.314878,0.926572272 C192.314893,0.931773579 192.314898,0.936974911 192.314894,0.942176239 L192.231007,97.7419975 C192.229034,100.019188 190.385997,101.866043 188.108816,101.87273 L188.108816,101.87273 C185.842798,101.879384 184.000433,100.047808 183.993779,97.7817899 C183.993764,97.7765886 183.993758,97.7713873 183.993763,97.7661859 L184.07765,0.96636467 C184.079623,-1.31082582 185.922659,-3.15768105 188.199841,-3.16436792 Z" id="Rectangle-Copy-10" transform="translate(188.154328, 49.354181) rotate(27.000000) translate(-188.154328, -49.354181) "></path>
                    <path d="M209.311662,-3.16436792 L209.311662,-3.16436792 C211.57768,-3.17102202 213.420045,-1.33944571 213.426699,0.926572272 C213.426714,0.931773579 213.426719,0.936974911 213.426715,0.942176239 L213.342828,97.7419975 C213.340855,100.019188 211.497818,101.866043 209.220637,101.87273 L209.220637,101.87273 C206.954619,101.879384 205.112254,100.047808 205.1056,97.7817899 C205.105585,97.7765886 205.105579,97.7713873 205.105584,97.7661859 L205.189471,0.96636467 C205.191444,-1.31082582 207.03448,-3.15768105 209.311662,-3.16436792 Z" id="Rectangle-Copy-11" transform="translate(209.266149, 49.354181) rotate(27.000000) translate(-209.266149, -49.354181) "></path>
                </g>
            </g>
        </g>
        <g id="Rectangle-Copy-2-+-Rectangle-Copy-Mask-Copy-Copy-Copy" transform="translate(666.000000, 36.000000)">
            <mask id="mask-6" fill="white">
                <use xlink:href="#path-5"></use>
            </mask>
            <g id="Mask"></g>
            <rect id="Rectangle-Copy-2" stroke="#41B45C" stroke-width="3" mask="url(#mask-6)" x="1.5" y="1.5" width="172" height="50" rx="25"></rect>
            <g id="Group" mask="url(#mask-6)" stroke="#41B45C" stroke-opacity="0.270946558" stroke-width="2">
                <g transform="translate(-21.000000, -27.000000)">
                    <path d="M28.3531955,-3.16436792 L28.3531955,-3.16436792 C30.6192135,-3.17102202 32.4615782,-1.33944571 32.4682323,0.926572272 C32.4682476,0.931773579 32.468253,0.936974911 32.4682485,0.942176239 L32.3843618,97.7419975 C32.3823884,100.019188 30.539352,101.866043 28.2621705,101.87273 L28.2621705,101.87273 C25.9961525,101.879384 24.1537878,100.047808 24.1471337,97.7817899 C24.1471184,97.7765886 24.147113,97.7713873 24.1471175,97.7661859 L24.2310041,0.96636467 C24.2329776,-1.31082582 26.076014,-3.15768105 28.3531955,-3.16436792 Z" id="Rectangle-Copy" transform="translate(28.307683, 49.354181) rotate(27.000000) translate(-28.307683, -49.354181) "></path>
                    <path d="M48.711023,-3.16436792 L48.711023,-3.16436792 C50.977041,-3.17102202 52.8194057,-1.33944571 52.8260598,0.926572272 C52.8260751,0.931773579 52.8260805,0.936974911 52.826076,0.942176239 L52.7421893,97.7419975 C52.7402159,100.019188 50.8971795,101.866043 48.6199979,101.87273 L48.6199979,101.87273 C46.35398,101.879384 44.5116152,100.047808 44.5049611,97.7817899 C44.5049459,97.7765886 44.5049405,97.7713873 44.504945,97.7661859 L44.5888316,0.96636467 C44.590805,-1.31082582 46.4338415,-3.15768105 48.711023,-3.16436792 Z" id="Rectangle-Copy-3" transform="translate(48.665510, 49.354181) rotate(27.000000) translate(-48.665510, -49.354181) "></path>
                    <path d="M68.3148569,-3.16436792 L68.3148569,-3.16436792 C70.5808748,-3.17102202 72.4232396,-1.33944571 72.4298937,0.926572272 C72.4299089,0.931773579 72.4299143,0.936974911 72.4299098,0.942176239 L72.3460232,97.7419975 C72.3440498,100.019188 70.5010133,101.866043 68.2238318,101.87273 L68.2238318,101.87273 C65.9578138,101.879384 64.1154491,100.047808 64.108795,97.7817899 C64.1087797,97.7765886 64.1087743,97.7713873 64.1087789,97.7661859 L64.1926655,0.96636467 C64.1946389,-1.31082582 66.0376753,-3.15768105 68.3148569,-3.16436792 Z" id="Rectangle-Copy-4" transform="translate(68.269344, 49.354181) rotate(27.000000) translate(-68.269344, -49.354181) "></path>
                    <path d="M88.6726843,-3.16436792 L88.6726843,-3.16436792 C90.9387023,-3.17102202 92.7810671,-1.33944571 92.7877212,0.926572272 C92.7877364,0.931773579 92.7877418,0.936974911 92.7877373,0.942176239 L92.7038507,97.7419975 C92.7018773,100.019188 90.8588408,101.866043 88.5816593,101.87273 L88.5816593,101.87273 C86.3156413,101.879384 84.4732766,100.047808 84.4666225,97.7817899 C84.4666072,97.7765886 84.4666018,97.7713873 84.4666063,97.7661859 L84.550493,0.96636467 C84.5524664,-1.31082582 86.3955028,-3.15768105 88.6726843,-3.16436792 Z" id="Rectangle-Copy-5" transform="translate(88.627172, 49.354181) rotate(27.000000) translate(-88.627172, -49.354181) "></path>
                    <path d="M108.276518,-3.16436792 L108.276518,-3.16436792 C110.542536,-3.17102202 112.384901,-1.33944571 112.391555,0.926572272 C112.39157,0.931773579 112.391576,0.936974911 112.391571,0.942176239 L112.307685,97.7419975 C112.305711,100.019188 110.462675,101.866043 108.185493,101.87273 L108.185493,101.87273 C105.919475,101.879384 104.07711,100.047808 104.070456,97.7817899 C104.070441,97.7765886 104.070436,97.7713873 104.07044,97.7661859 L104.154327,0.96636467 C104.1563,-1.31082582 105.999337,-3.15768105 108.276518,-3.16436792 Z" id="Rectangle-Copy-6" transform="translate(108.231006, 49.354181) rotate(27.000000) translate(-108.231006, -49.354181) "></path>
                    <path d="M127.880352,-3.16436792 L127.880352,-3.16436792 C130.14637,-3.17102202 131.988735,-1.33944571 131.995389,0.926572272 C131.995404,0.931773579 131.99541,0.936974911 131.995405,0.942176239 L131.911518,97.7419975 C131.909545,100.019188 130.066509,101.866043 127.789327,101.87273 L127.789327,101.87273 C125.523309,101.879384 123.680944,100.047808 123.67429,97.7817899 C123.674275,97.7765886 123.67427,97.7713873 123.674274,97.7661859 L123.758161,0.96636467 C123.760134,-1.31082582 125.603171,-3.15768105 127.880352,-3.16436792 Z" id="Rectangle-Copy-7" transform="translate(127.834840, 49.354181) rotate(27.000000) translate(-127.834840, -49.354181) "></path>
                    <path d="M148.23818,-3.16436792 L148.23818,-3.16436792 C150.504198,-3.17102202 152.346562,-1.33944571 152.353216,0.926572272 C152.353232,0.931773579 152.353237,0.936974911 152.353233,0.942176239 L152.269346,97.7419975 C152.267372,100.019188 150.424336,101.866043 148.147154,101.87273 L148.147154,101.87273 C145.881137,101.879384 144.038772,100.047808 144.032118,97.7817899 C144.032102,97.7765886 144.032097,97.7713873 144.032102,97.7661859 L144.115988,0.96636467 C144.117962,-1.31082582 145.960998,-3.15768105 148.23818,-3.16436792 Z" id="Rectangle-Copy-8" transform="translate(148.192667, 49.354181) rotate(27.000000) translate(-148.192667, -49.354181) "></path>
                    <path d="M167.842013,-3.16436792 L167.842013,-3.16436792 C170.108031,-3.17102202 171.950396,-1.33944571 171.95705,0.926572272 C171.957065,0.931773579 171.957071,0.936974911 171.957066,0.942176239 L171.87318,97.7419975 C171.871206,100.019188 170.02817,101.866043 167.750988,101.87273 L167.750988,101.87273 C165.48497,101.879384 163.642606,100.047808 163.635952,97.7817899 C163.635936,97.7765886 163.635931,97.7713873 163.635935,97.7661859 L163.719822,0.96636467 C163.721795,-1.31082582 165.564832,-3.15768105 167.842013,-3.16436792 Z" id="Rectangle-Copy-9" transform="translate(167.796501, 49.354181) rotate(27.000000) translate(-167.796501, -49.354181) "></path>
                    <path d="M188.199841,-3.16436792 L188.199841,-3.16436792 C190.465859,-3.17102202 192.308224,-1.33944571 192.314878,0.926572272 C192.314893,0.931773579 192.314898,0.936974911 192.314894,0.942176239 L192.231007,97.7419975 C192.229034,100.019188 190.385997,101.866043 188.108816,101.87273 L188.108816,101.87273 C185.842798,101.879384 184.000433,100.047808 183.993779,97.7817899 C183.993764,97.7765886 183.993758,97.7713873 183.993763,97.7661859 L184.07765,0.96636467 C184.079623,-1.31082582 185.922659,-3.15768105 188.199841,-3.16436792 Z" id="Rectangle-Copy-10" transform="translate(188.154328, 49.354181) rotate(27.000000) translate(-188.154328, -49.354181) "></path>
                    <path d="M209.311662,-3.16436792 L209.311662,-3.16436792 C211.57768,-3.17102202 213.420045,-1.33944571 213.426699,0.926572272 C213.426714,0.931773579 213.426719,0.936974911 213.426715,0.942176239 L213.342828,97.7419975 C213.340855,100.019188 211.497818,101.866043 209.220637,101.87273 L209.220637,101.87273 C206.954619,101.879384 205.112254,100.047808 205.1056,97.7817899 C205.105585,97.7765886 205.105579,97.7713873 205.105584,97.7661859 L205.189471,0.96636467 C205.191444,-1.31082582 207.03448,-3.15768105 209.311662,-3.16436792 Z" id="Rectangle-Copy-11" transform="translate(209.266149, 49.354181) rotate(27.000000) translate(-209.266149, -49.354181) "></path>
                </g>
            </g>
        </g>
        <g id="Rectangle-Copy-2-+-Rectangle-Copy-Mask-Copy-Copy-Copy-Copy-Copy" transform="translate(0.000000, 2.000000)">
            <mask id="mask-8" fill="white">
                <use xlink:href="#path-7"></use>
            </mask>
            <g id="Mask"></g>
            <rect id="Rectangle-Copy-2" stroke="#4179B4" stroke-width="3" mask="url(#mask-8)" x="1.5" y="1.5" width="171" height="50" rx="25"></rect>
            <g id="Group" mask="url(#mask-8)" stroke="#4179B4" stroke-opacity="0.272022192" stroke-width="2">
                <g transform="translate(-19.686131, -28.648649)">
                    <path d="M26.6880627,-1.07776652 L26.6880627,-1.07776652 C29.0020797,-1.06137763 30.8745971,0.809201189 30.8933829,3.12320001 L31.6780658,99.7790029 C31.6964867,102.04806 29.8719853,103.902428 27.6029279,103.920849 C27.5821108,103.921018 27.5612927,103.921029 27.5404754,103.920881 L27.5404754,103.920881 C25.2264584,103.904492 23.353941,102.033913 23.3351552,99.7199147 L22.5504724,3.06411183 C22.5320514,0.795054382 24.3565528,-1.05931324 26.6256103,-1.07773418 C26.6464274,-1.07790318 26.6672454,-1.07791396 26.6880627,-1.07776652 Z" id="Rectangle-Copy" transform="translate(27.114269, 51.421557) rotate(27.000000) translate(-27.114269, -51.421557) "></path>
                    <path d="M46.9017004,-1.07776652 L46.9017004,-1.07776652 C49.2157175,-1.06137763 51.0882349,0.809201189 51.1070207,3.12320001 L51.8917035,99.7790029 C51.9101244,102.04806 50.0856231,103.902428 47.8165656,103.920849 C47.7957485,103.921018 47.7749304,103.921029 47.7541132,103.920881 L47.7541132,103.920881 C45.4400961,103.904492 43.5675787,102.033913 43.5487929,99.7199147 L42.7641101,3.06411183 C42.7456892,0.795054382 44.5701905,-1.05931324 46.839248,-1.07773418 C46.8600651,-1.07790318 46.8808832,-1.07791396 46.9017004,-1.07776652 Z" id="Rectangle-Copy-3" transform="translate(47.327907, 51.421557) rotate(27.000000) translate(-47.327907, -51.421557) "></path>
                    <path d="M66.3666849,-1.07776652 L66.3666849,-1.07776652 C68.680702,-1.06137763 70.5532194,0.809201189 70.5720052,3.12320001 L71.356688,99.7790029 C71.3751089,102.04806 69.5506076,103.902428 67.2815501,103.920849 C67.260733,103.921018 67.2399149,103.921029 67.2190977,103.920881 L67.2190977,103.920881 C64.9050806,103.904492 63.0325632,102.033913 63.0137774,99.7199147 L62.2290946,3.06411183 C62.2106737,0.795054382 64.035175,-1.05931324 66.3042325,-1.07773418 C66.3250496,-1.07790318 66.3458677,-1.07791396 66.3666849,-1.07776652 Z" id="Rectangle-Copy-4" transform="translate(66.792891, 51.421557) rotate(27.000000) translate(-66.792891, -51.421557) "></path>
                    <path d="M86.5803227,-1.07776652 L86.5803227,-1.07776652 C88.8943397,-1.06137763 90.7668571,0.809201189 90.7856429,3.12320001 L91.5703257,99.7790029 C91.5887467,102.04806 89.7642453,103.902428 87.4951878,103.920849 C87.4743707,103.921018 87.4535527,103.921029 87.4327354,103.920881 L87.4327354,103.920881 C85.1187184,103.904492 83.246201,102.033913 83.2274152,99.7199147 L82.4427323,3.06411183 C82.4243114,0.795054382 84.2488128,-1.05931324 86.5178702,-1.07773418 C86.5386873,-1.07790318 86.5595054,-1.07791396 86.5803227,-1.07776652 Z" id="Rectangle-Copy-5" transform="translate(87.006529, 51.421557) rotate(27.000000) translate(-87.006529, -51.421557) "></path>
                    <path d="M106.045307,-1.07776652 L106.045307,-1.07776652 C108.359324,-1.06137763 110.231842,0.809201189 110.250627,3.12320001 L111.03531,99.7790029 C111.053731,102.04806 109.22923,103.902428 106.960172,103.920849 C106.939355,103.921018 106.918537,103.921029 106.89772,103.920881 L106.89772,103.920881 C104.583703,103.904492 102.711185,102.033913 102.6924,99.7199147 L101.907717,3.06411183 C101.889296,0.795054382 103.713797,-1.05931324 105.982855,-1.07773418 C106.003672,-1.07790318 106.02449,-1.07791396 106.045307,-1.07776652 Z" id="Rectangle-Copy-6" transform="translate(106.471514, 51.421557) rotate(27.000000) translate(-106.471514, -51.421557) "></path>
                    <path d="M125.510292,-1.07776652 L125.510292,-1.07776652 C127.824309,-1.06137763 129.696826,0.809201189 129.715612,3.12320001 L130.500295,99.7790029 C130.518716,102.04806 128.694214,103.902428 126.425157,103.920849 C126.40434,103.921018 126.383522,103.921029 126.362704,103.920881 L126.362704,103.920881 C124.048687,103.904492 122.17617,102.033913 122.157384,99.7199147 L121.372701,3.06411183 C121.35428,0.795054382 123.178782,-1.05931324 125.447839,-1.07773418 C125.468656,-1.07790318 125.489474,-1.07791396 125.510292,-1.07776652 Z" id="Rectangle-Copy-7" transform="translate(125.936498, 51.421557) rotate(27.000000) translate(-125.936498, -51.421557) "></path>
                    <path d="M145.723929,-1.07776652 L145.723929,-1.07776652 C148.037946,-1.06137763 149.910464,0.809201189 149.92925,3.12320001 L150.713932,99.7790029 C150.732353,102.04806 148.907852,103.902428 146.638795,103.920849 C146.617977,103.921018 146.597159,103.921029 146.576342,103.920881 L146.576342,103.920881 C144.262325,103.904492 142.389808,102.033913 142.371022,99.7199147 L141.586339,3.06411183 C141.567918,0.795054382 143.39242,-1.05931324 145.661477,-1.07773418 C145.682294,-1.07790318 145.703112,-1.07791396 145.723929,-1.07776652 Z" id="Rectangle-Copy-8" transform="translate(146.150136, 51.421557) rotate(27.000000) translate(-146.150136, -51.421557) "></path>
                    <path d="M165.188914,-1.07776652 L165.188914,-1.07776652 C167.502931,-1.06137763 169.375448,0.809201189 169.394234,3.12320001 L170.178917,99.7790029 C170.197338,102.04806 168.372837,103.902428 166.103779,103.920849 C166.082962,103.921018 166.062144,103.921029 166.041327,103.920881 L166.041327,103.920881 C163.72731,103.904492 161.854792,102.033913 161.836006,99.7199147 L161.051324,3.06411183 C161.032903,0.795054382 162.857404,-1.05931324 165.126461,-1.07773418 C165.147279,-1.07790318 165.168097,-1.07791396 165.188914,-1.07776652 Z" id="Rectangle-Copy-9" transform="translate(165.615120, 51.421557) rotate(27.000000) translate(-165.615120, -51.421557) "></path>
                    <path d="M185.402552,-1.07776652 L185.402552,-1.07776652 C187.716569,-1.06137763 189.589086,0.809201189 189.607872,3.12320001 L190.392555,99.7790029 C190.410976,102.04806 188.586474,103.902428 186.317417,103.920849 C186.2966,103.921018 186.275782,103.921029 186.254964,103.920881 L186.254964,103.920881 C183.940947,103.904492 182.06843,102.033913 182.049644,99.7199147 L181.264961,3.06411183 C181.24654,0.795054382 183.071042,-1.05931324 185.340099,-1.07773418 C185.360916,-1.07790318 185.381734,-1.07791396 185.402552,-1.07776652 Z" id="Rectangle-Copy-10" transform="translate(185.828758, 51.421557) rotate(27.000000) translate(-185.828758, -51.421557) "></path>
                    <path d="M206.364843,-1.07776652 L206.364843,-1.07776652 C208.67886,-1.06137763 210.551377,0.809201189 210.570163,3.12320001 L211.354846,99.7790029 C211.373267,102.04806 209.548765,103.902428 207.279708,103.920849 C207.258891,103.921018 207.238073,103.921029 207.217255,103.920881 L207.217255,103.920881 C204.903238,103.904492 203.030721,102.033913 203.011935,99.7199147 L202.227252,3.06411183 C202.208831,0.795054382 204.033333,-1.05931324 206.30239,-1.07773418 C206.323207,-1.07790318 206.344025,-1.07791396 206.364843,-1.07776652 Z" id="Rectangle-Copy-11" transform="translate(206.791049, 51.421557) rotate(27.000000) translate(-206.791049, -51.421557) "></path>
                </g>
            </g>
        </g>
        <g id="Rectangle-Copy-2-+-Rectangle-Copy-Mask-Copy-Copy-Copy-Copy-Copy-Copy" transform="translate(0.000000, 69.000000)">
            <mask id="mask-10" fill="white">
                <use xlink:href="#path-9"></use>
            </mask>
            <g id="Mask"></g>
            <rect id="Rectangle-Copy-2" stroke="#4179B4" stroke-width="3" mask="url(#mask-10)" x="1.5" y="1.5" width="171" height="50" rx="25"></rect>
            <g id="Group" mask="url(#mask-10)" stroke="#4179B4" stroke-opacity="0.272022192" stroke-width="2">
                <g transform="translate(-19.686131, -28.648649)">
                    <path d="M26.6880627,-1.07776652 L26.6880627,-1.07776652 C29.0020797,-1.06137763 30.8745971,0.809201189 30.8933829,3.12320001 L31.6780658,99.7790029 C31.6964867,102.04806 29.8719853,103.902428 27.6029279,103.920849 C27.5821108,103.921018 27.5612927,103.921029 27.5404754,103.920881 L27.5404754,103.920881 C25.2264584,103.904492 23.353941,102.033913 23.3351552,99.7199147 L22.5504724,3.06411183 C22.5320514,0.795054382 24.3565528,-1.05931324 26.6256103,-1.07773418 C26.6464274,-1.07790318 26.6672454,-1.07791396 26.6880627,-1.07776652 Z" id="Rectangle-Copy" transform="translate(27.114269, 51.421557) rotate(27.000000) translate(-27.114269, -51.421557) "></path>
                    <path d="M46.9017004,-1.07776652 L46.9017004,-1.07776652 C49.2157175,-1.06137763 51.0882349,0.809201189 51.1070207,3.12320001 L51.8917035,99.7790029 C51.9101244,102.04806 50.0856231,103.902428 47.8165656,103.920849 C47.7957485,103.921018 47.7749304,103.921029 47.7541132,103.920881 L47.7541132,103.920881 C45.4400961,103.904492 43.5675787,102.033913 43.5487929,99.7199147 L42.7641101,3.06411183 C42.7456892,0.795054382 44.5701905,-1.05931324 46.839248,-1.07773418 C46.8600651,-1.07790318 46.8808832,-1.07791396 46.9017004,-1.07776652 Z" id="Rectangle-Copy-3" transform="translate(47.327907, 51.421557) rotate(27.000000) translate(-47.327907, -51.421557) "></path>
                    <path d="M66.3666849,-1.07776652 L66.3666849,-1.07776652 C68.680702,-1.06137763 70.5532194,0.809201189 70.5720052,3.12320001 L71.356688,99.7790029 C71.3751089,102.04806 69.5506076,103.902428 67.2815501,103.920849 C67.260733,103.921018 67.2399149,103.921029 67.2190977,103.920881 L67.2190977,103.920881 C64.9050806,103.904492 63.0325632,102.033913 63.0137774,99.7199147 L62.2290946,3.06411183 C62.2106737,0.795054382 64.035175,-1.05931324 66.3042325,-1.07773418 C66.3250496,-1.07790318 66.3458677,-1.07791396 66.3666849,-1.07776652 Z" id="Rectangle-Copy-4" transform="translate(66.792891, 51.421557) rotate(27.000000) translate(-66.792891, -51.421557) "></path>
                    <path d="M86.5803227,-1.07776652 L86.5803227,-1.07776652 C88.8943397,-1.06137763 90.7668571,0.809201189 90.7856429,3.12320001 L91.5703257,99.7790029 C91.5887467,102.04806 89.7642453,103.902428 87.4951878,103.920849 C87.4743707,103.921018 87.4535527,103.921029 87.4327354,103.920881 L87.4327354,103.920881 C85.1187184,103.904492 83.246201,102.033913 83.2274152,99.7199147 L82.4427323,3.06411183 C82.4243114,0.795054382 84.2488128,-1.05931324 86.5178702,-1.07773418 C86.5386873,-1.07790318 86.5595054,-1.07791396 86.5803227,-1.07776652 Z" id="Rectangle-Copy-5" transform="translate(87.006529, 51.421557) rotate(27.000000) translate(-87.006529, -51.421557) "></path>
                    <path d="M106.045307,-1.07776652 L106.045307,-1.07776652 C108.359324,-1.06137763 110.231842,0.809201189 110.250627,3.12320001 L111.03531,99.7790029 C111.053731,102.04806 109.22923,103.902428 106.960172,103.920849 C106.939355,103.921018 106.918537,103.921029 106.89772,103.920881 L106.89772,103.920881 C104.583703,103.904492 102.711185,102.033913 102.6924,99.7199147 L101.907717,3.06411183 C101.889296,0.795054382 103.713797,-1.05931324 105.982855,-1.07773418 C106.003672,-1.07790318 106.02449,-1.07791396 106.045307,-1.07776652 Z" id="Rectangle-Copy-6" transform="translate(106.471514, 51.421557) rotate(27.000000) translate(-106.471514, -51.421557) "></path>
                    <path d="M125.510292,-1.07776652 L125.510292,-1.07776652 C127.824309,-1.06137763 129.696826,0.809201189 129.715612,3.12320001 L130.500295,99.7790029 C130.518716,102.04806 128.694214,103.902428 126.425157,103.920849 C126.40434,103.921018 126.383522,103.921029 126.362704,103.920881 L126.362704,103.920881 C124.048687,103.904492 122.17617,102.033913 122.157384,99.7199147 L121.372701,3.06411183 C121.35428,0.795054382 123.178782,-1.05931324 125.447839,-1.07773418 C125.468656,-1.07790318 125.489474,-1.07791396 125.510292,-1.07776652 Z" id="Rectangle-Copy-7" transform="translate(125.936498, 51.421557) rotate(27.000000) translate(-125.936498, -51.421557) "></path>
                    <path d="M145.723929,-1.07776652 L145.723929,-1.07776652 C148.037946,-1.06137763 149.910464,0.809201189 149.92925,3.12320001 L150.713932,99.7790029 C150.732353,102.04806 148.907852,103.902428 146.638795,103.920849 C146.617977,103.921018 146.597159,103.921029 146.576342,103.920881 L146.576342,103.920881 C144.262325,103.904492 142.389808,102.033913 142.371022,99.7199147 L141.586339,3.06411183 C141.567918,0.795054382 143.39242,-1.05931324 145.661477,-1.07773418 C145.682294,-1.07790318 145.703112,-1.07791396 145.723929,-1.07776652 Z" id="Rectangle-Copy-8" transform="translate(146.150136, 51.421557) rotate(27.000000) translate(-146.150136, -51.421557) "></path>
                    <path d="M165.188914,-1.07776652 L165.188914,-1.07776652 C167.502931,-1.06137763 169.375448,0.809201189 169.394234,3.12320001 L170.178917,99.7790029 C170.197338,102.04806 168.372837,103.902428 166.103779,103.920849 C166.082962,103.921018 166.062144,103.921029 166.041327,103.920881 L166.041327,103.920881 C163.72731,103.904492 161.854792,102.033913 161.836006,99.7199147 L161.051324,3.06411183 C161.032903,0.795054382 162.857404,-1.05931324 165.126461,-1.07773418 C165.147279,-1.07790318 165.168097,-1.07791396 165.188914,-1.07776652 Z" id="Rectangle-Copy-9" transform="translate(165.615120, 51.421557) rotate(27.000000) translate(-165.615120, -51.421557) "></path>
                    <path d="M185.402552,-1.07776652 L185.402552,-1.07776652 C187.716569,-1.06137763 189.589086,0.809201189 189.607872,3.12320001 L190.392555,99.7790029 C190.410976,102.04806 188.586474,103.902428 186.317417,103.920849 C186.2966,103.921018 186.275782,103.921029 186.254964,103.920881 L186.254964,103.920881 C183.940947,103.904492 182.06843,102.033913 182.049644,99.7199147 L181.264961,3.06411183 C181.24654,0.795054382 183.071042,-1.05931324 185.340099,-1.07773418 C185.360916,-1.07790318 185.381734,-1.07791396 185.402552,-1.07776652 Z" id="Rectangle-Copy-10" transform="translate(185.828758, 51.421557) rotate(27.000000) translate(-185.828758, -51.421557) "></path>
                    <path d="M206.364843,-1.07776652 L206.364843,-1.07776652 C208.67886,-1.06137763 210.551377,0.809201189 210.570163,3.12320001 L211.354846,99.7790029 C211.373267,102.04806 209.548765,103.902428 207.279708,103.920849 C207.258891,103.921018 207.238073,103.921029 207.217255,103.920881 L207.217255,103.920881 C204.903238,103.904492 203.030721,102.033913 203.011935,99.7199147 L202.227252,3.06411183 C202.208831,0.795054382 204.033333,-1.05931324 206.30239,-1.07773418 C206.323207,-1.07790318 206.344025,-1.07791396 206.364843,-1.07776652 Z" id="Rectangle-Copy-11" transform="translate(206.791049, 51.421557) rotate(27.000000) translate(-206.791049, -51.421557) "></path>
                </g>
            </g>
        </g>
        <text id="Pierre’s-research" font-family="Manrope3-Semibold, Manrope3" font-size="16" font-weight="500" letter-spacing="-0.010463981" fill="#4179B4">
            <tspan x="20.7806105" y="33">Pierre’s research</tspan>
        </text>
        <text id="Theo’s-research" font-family="Manrope3-Semibold, Manrope3" font-size="16" font-weight="500" letter-spacing="-0.010463981" fill="#4179B4">
            <tspan x="24.3784799" y="100">Theo’s research</tspan>
        </text>
        <text id="Internship-Period" font-family="Manrope3-Semibold, Manrope3" font-size="16" font-weight="500" letter-spacing="-0.0104639819" fill="#5141B4">
            <tspan x="275.388944" y="67">Internship Period</tspan>
        </text>
        <text id="User-research" font-family="Manrope3-Semibold, Manrope3" font-size="16" font-weight="500" letter-spacing="-0.0104639819" fill="#FD5F5F">
            <tspan x="493.284683" y="67">User research</tspan>
        </text>
        <text id="Ideate-&amp;-Sketch" font-family="Manrope3-Semibold, Manrope3" font-size="16" font-weight="500" letter-spacing="-0.0104639819" fill="#41B45C">
            <tspan x="691.861813" y="67">Ideate &amp; Sketch</tspan>
        </text>
        <path d="M428,64.5 L428,60.5 L437,60.5 L437,64.5 L428,64.5 Z M441,64.5 L441,60.5 L450,60.5 L450,64.5 L441,64.5 Z M454,64.5 L454,60.5 L463,60.5 L463,64.5 L454,64.5 Z" id="Line" fill="url(#linearGradient-11)" fill-rule="nonzero"></path>
        <path d="M634,64.5 L634,60.5 L643,60.5 L643,64.5 L634,64.5 Z M647,64.5 L647,60.5 L656,60.5 L656,64.5 L647,64.5 Z M660,64.5 L660,60.5 L669,60.5 L669,64.5 L660,64.5 Z" id="Line-Copy" fill="url(#linearGradient-12)" fill-rule="nonzero"></path>
        <path d="M172,96 C186.126345,96 197.716208,91.6866703 206.769588,83.0600109 C224.348616,66.3095497 241.758754,57.9562127 259,58" id="Path-2" stroke="url(#linearGradient-13)" stroke-width="4"></path>
        <path d="M172,67 C186.126345,67 197.716208,62.6866703 206.769588,54.0600109 C224.348616,37.3095497 241.758754,28.9562127 259,29" id="Path-2-Copy" stroke="url(#linearGradient-14)" stroke-width="4" transform="translate(215.500000, 48.000000) scale(1, -1) translate(-215.500000, -48.000000) "></path>
    </g>
</svg>