<?xml version="1.0" encoding="UTF-8"?>
<svg width="348px" height="265px" viewBox="0 0 348 265" version="1.1" xmlns="http://www.w3.org/2000/svg" xmlns:xlink="http://www.w3.org/1999/xlink">
    <!-- Generator: Sketch 52.5 (67469) - http://www.bohemiancoding.com/sketch -->
    <title>Artboard</title>
    <desc>Created with Sketch.</desc>
    <g id="Artboard" stroke="none" stroke-width="1" fill="none" fill-rule="evenodd">
        <g id="undraw_reading_book_4wjf-copy" fill-rule="nonzero">
            <ellipse id="Oval" fill="#3F3D56" cx="26" cy="217" rx="21" ry="3"></ellipse>
            <circle id="Oval" fill="#F2F2F2" cx="174" cy="125" r="106"></circle>
            <path d="M181.499983,233 C180.271012,233 179.029495,232.980532 177.810907,232.942465 L177.838594,232.057407 C179.588407,232.111913 181.374101,232.127054 183.132127,232.102831 L183.144239,232.988761 C182.597024,232.996108 182.048938,232.999854 181.499983,233 Z M188.474528,232.794521 L188.422621,231.91032 C190.175016,231.806933 191.949909,231.661583 193.69798,231.478602 L193.790553,232.359342 C192.029085,232.544056 190.240799,232.690702 188.474541,232.794521 L188.474528,232.794521 Z M172.485369,232.656528 C170.718265,232.52113 168.932558,232.343769 167.177561,232.128348 L167.285707,231.24934 C169.027272,231.462601 170.799151,231.639095 172.552846,231.773199 L172.485369,232.656528 Z M199.080618,231.682349 L198.947815,230.806808 C200.688964,230.542499 202.443523,230.235803 204.161315,229.894488 L204.333914,230.763117 C202.602738,231.107011 200.835189,231.416308 199.080631,231.682349 L199.080618,231.682349 Z M161.900267,231.358342 C160.154578,231.062456 158.392445,230.722445 156.662975,230.346962 L156.850934,229.480938 C158.56721,229.853826 160.315713,230.191242 162.048212,230.484533 L161.900267,231.358342 Z M209.540499,229.603352 L209.327669,228.743374 C211.036808,228.320741 212.755463,227.853558 214.436051,227.355213 L214.687813,228.204808 C212.994254,228.707039 211.262621,229.17769 209.540505,229.603352 L209.540499,229.603352 Z M151.478244,229.095497 C149.765864,228.639987 148.042663,228.139063 146.356451,227.605678 L146.623357,226.761276 C148.296808,227.290325 150.006809,227.787366 151.705783,228.238983 L151.478244,229.095497 Z M219.76504,226.570069 L219.474344,225.733451 C221.132869,225.156815 222.800911,224.533462 224.433052,223.880261 L224.761815,224.703035 C223.117581,225.361001 221.436558,225.989112 219.765055,226.570075 L219.76504,226.570069 Z M141.295641,225.876202 C139.632573,225.264961 137.959122,224.605272 136.322226,223.915733 L136.666129,223.099015 C138.290483,223.783361 139.950956,224.437863 141.60148,225.044778 L141.295641,225.876202 Z M229.656063,222.612357 L229.289234,221.806022 C230.88202,221.082308 232.483,220.309713 234.047655,219.509868 L234.450855,220.298918 C232.874072,221.104809 231.260967,221.883028 229.656082,222.612363 L229.656063,222.612357 Z M131.445945,221.729028 C129.847331,220.967247 128.242662,220.15702 126.677141,219.320403 L127.094586,218.539157 C128.648427,219.369284 130.240551,220.173459 131.827053,220.929615 L131.445945,221.729028 Z M239.134859,217.766993 L238.696219,216.997859 C240.223657,216.126204 241.748529,215.209979 243.227533,214.274311 L243.700779,215.022683 C242.210529,215.965714 240.674424,216.889282 239.134859,217.766993 Z M122.025354,216.695915 C120.504822,215.791383 118.982126,214.837535 117.499877,213.861192 L117.987401,213.121474 C119.458186,214.09046 120.969201,215.036955 122.478269,215.934565 L122.025354,216.695915 Z M248.137357,212.071596 L247.630371,211.345719 C249.068711,210.340826 250.504023,209.28835 251.896511,208.218141 L252.436377,208.920654 C251.033507,209.999086 249.586948,211.05935 248.137357,212.071596 Z M113.110019,210.824023 C111.680112,209.785391 110.251721,208.697442 108.864208,207.589597 L109.417051,206.897463 C110.793963,207.996648 112.211543,209.07639 113.630417,210.106803 L113.110019,210.824023 Z M256.587881,205.576783 L256.016876,204.899355 C257.357469,203.76815 258.691539,202.589358 259.982803,201.395428 L260.584094,202.046034 C259.283313,203.249049 257.938841,204.436924 256.587881,205.576783 Z M104.771102,204.165693 C103.439391,202.999447 102.116335,201.786484 100.838914,200.560114 L101.452319,199.920757 C102.72022,201.138047 104.033113,202.341929 105.354656,203.499521 L104.771102,204.165693 Z M264.416349,198.335764 L263.785642,197.713708 C265.021535,196.461377 266.244015,195.165358 267.41848,193.861982 L268.076874,194.454621 C266.893324,195.768377 265.661758,197.073926 264.416349,198.335764 Z M97.0758682,196.780191 C95.854035,195.49543 94.647343,194.167387 93.4893228,192.833297 L94.1585311,192.252775 C95.307688,193.576914 96.5050821,194.894565 97.71783,196.16939 L97.0758682,196.780191 Z M271.55701,190.410396 L270.872663,189.848036 C271.989162,188.489291 273.088356,187.087287 274.140832,185.680093 L274.850271,186.210439 C273.790007,187.628451 272.682172,189.041701 271.55701,190.410396 Z M90.0868282,188.728511 C88.989582,187.342079 87.9092026,185.910658 86.8755442,184.474048 L87.5944996,183.956679 C88.6203702,185.382041 89.6925303,186.802647 90.7815604,188.179128 L90.0868282,188.728511 Z M277.948423,181.863838 L277.215634,181.366366 C278.203653,179.911572 279.171344,178.414413 280.091449,176.915513 L280.846739,177.379241 C279.918853,178.889391 278.943812,180.398243 277.948423,181.863838 Z M83.8625828,180.078997 C82.8972673,178.599143 81.9525079,177.076434 81.0542474,175.552007 L81.8173257,175.102121 C82.70888,176.614866 83.6465082,178.126313 84.6044641,179.594503 L83.8625828,180.078997 Z M283.536553,172.765293 L282.761363,172.337039 C283.611821,170.797905 284.438056,169.217246 285.218004,167.638747 L286.012228,168.031532 C285.226658,169.621717 284.393502,171.214491 283.536553,172.765293 Z M78.4563812,170.902586 C77.6301466,169.34096 76.8290172,167.73867 76.0752241,166.140722 L76.8763693,165.762644 C77.6245254,167.348496 78.4193959,168.938672 79.239359,170.488189 L78.4563812,170.902586 Z M288.267719,163.187887 L287.456194,162.832303 C288.162169,161.220065 288.840028,159.568893 289.471169,157.925074 L290.29827,158.242591 C289.66237,159.899397 288.978887,161.563127 288.267719,163.187897 L288.267719,163.187887 Z M73.9155502,161.276289 C73.2363938,159.646311 72.5860034,157.978701 71.9825495,156.31931 L72.815265,156.016503 C73.4139605,157.663348 74.0593769,159.31798 74.7331246,160.935412 L73.9155502,161.276289 Z M292.098683,153.207304 L291.257739,152.92872 C291.810583,151.262839 292.332278,149.560188 292.808119,147.867488 L293.661175,148.107139 C293.181439,149.812842 292.655416,151.528899 292.098683,153.207326 L292.098683,153.207304 Z M70.2760061,151.265868 C69.7489051,149.577492 69.2535901,147.852781 68.8039237,146.138878 L69.6608721,145.913934 C70.1070838,147.614853 70.5987159,149.326586 71.1217088,151.001985 L70.2760061,151.265868 Z M294.986179,142.940359 L294.123175,142.739641 C294.519852,141.032232 294.882358,139.288487 295.201172,137.557721 L296.072395,137.717776 C295.751421,139.462409 295.385886,141.219131 294.986179,142.940381 L294.986179,142.940359 Z M67.5701978,140.949607 C67.2007703,139.219275 66.8663835,137.456494 66.5765509,135.709289 L67.4503693,135.563939 C67.7382541,137.29817 68.070046,139.047539 68.4366629,140.764462 L67.5701978,140.949607 Z M296.9168,132.451934 L296.038655,132.331674 C296.277009,130.59658 296.478161,128.827315 296.636919,127.072753 L297.519388,127.152348 C297.359332,128.920773 297.156451,130.70345 296.9168,132.451956 L296.9168,132.451934 Z M65.8242868,130.429171 C65.6153498,128.675475 65.4438294,126.889337 65.3142716,125.120503 L66.1980413,125.055615 C66.3263017,126.811474 66.4967403,128.583769 66.7041642,130.324487 L65.8242868,130.429171 Z M297.880165,121.831568 L296.995107,121.791773 C297.073836,120.036345 297.114067,118.255831 297.114067,116.499975 L298,116.499975 C297.99999,118.269262 297.95976,120.063188 297.880165,121.831591 L297.880165,121.831568 Z M65.0458549,119.793233 C65.0155726,118.707017 65.0002157,117.598737 65,116.499975 C65,115.81822 65.0058401,115.137765 65.0175203,114.45861 L65.9034503,114.474182 C65.8917701,115.14815 65.88593,115.823416 65.88593,116.499981 C65.8861489,117.590524 65.9015057,118.690584 65.9313534,119.769016 L65.0458549,119.793233 Z M297.10757,115.264082 C297.089399,113.507576 297.03057,111.727277 296.933239,109.972284 L297.81744,109.922971 C297.915637,111.691374 297.974901,113.485091 297.9935,115.254572 L297.10757,115.264082 Z M66.113688,109.18522 L65.2294869,109.129849 C65.3400112,107.359733 65.4927138,105.571853 65.6828331,103.815775 L66.5635732,103.911158 C66.3747514,105.65404 66.223562,107.428282 66.113688,109.18522 Z M296.518823,104.695852 C296.341897,102.949297 296.121711,101.182192 295.864756,99.4432032 L296.741172,99.3138611 C296.999856,101.066044 297.221768,102.846558 297.400429,104.606309 L296.518823,104.695852 Z M67.2533186,98.6634865 L66.3777778,98.5280853 C66.649224,96.7754744 66.9645805,95.0090167 67.3151775,93.2771681 L68.1833746,93.4527966 C67.835585,95.1714517 67.5226109,96.9244972 67.2533186,98.6634865 Z M294.970597,94.2269048 C294.632752,92.498733 294.251641,90.7590966 293.837228,89.0564549 L294.698069,88.8470865 C295.115512,90.5627153 295.499646,92.3157608 295.840079,94.0569103 L294.970597,94.2269048 Z M69.3517934,88.2905597 L68.4924659,88.0751322 C68.9226705,86.3592877 69.3991615,84.629168 69.9087453,82.9325759 L70.7570397,83.1873678 C70.2515671,84.8709854 69.7787465,86.5879085 69.3517934,88.2905597 Z M292.46681,83.9435243 C291.972799,82.2566646 291.432936,80.5598536 290.862359,78.8995964 L291.699833,78.6114959 C292.275171,80.284515 292.819361,81.9947351 293.317265,83.6943568 L292.46681,83.9435243 Z M72.4015148,78.1406293 L71.5657635,77.8469044 C72.1545076,76.1721564 72.7901915,74.4893952 73.4550728,72.8453705 L74.2765491,73.177597 C73.6166355,74.8088693 72.9857131,76.478859 72.4015085,78.1406293 L72.4015148,78.1406293 Z M289.02648,73.9348321 C288.380198,72.3044257 287.688064,70.6681761 286.969111,69.0712942 L287.777178,68.707491 C288.501755,70.3167036 289.199079,71.9654962 289.85012,73.6082331 L289.02648,73.9348321 Z M76.3778186,68.3080001 L75.5727778,67.9381412 C76.3127145,66.3267652 77.100216,64.7108497 77.9134888,63.1353804 L78.7007935,63.5415616 C77.8935924,65.1051635 77.1121278,66.7087358 76.3778186,68.3080001 Z M284.690684,64.3055187 C283.897758,62.7415107 283.057683,61.1742607 282.193807,59.6478883 L282.964663,59.2114121 C283.835446,60.7496805 284.681589,62.3288264 285.480574,63.904946 L284.690684,64.3055187 Z M81.2402744,58.8882678 L80.4724378,58.4461672 C81.3562075,56.9115755 82.288208,55.3754706 83.2427062,53.8808937 L83.9893459,54.3576035 C83.0422042,55.8409253 82.1171223,57.3653595 81.2402744,58.8882709 L81.2402744,58.8882678 Z M279.485838,55.1074853 C278.549726,53.6172354 277.569482,52.1326066 276.572387,50.6946987 L277.299993,50.1898733 C278.304886,51.6388142 279.292905,53.1346886 280.235939,54.6364158 L279.485838,55.1074853 Z M86.9425928,49.9586607 L86.2184507,49.4482108 C87.2397787,47.9997044 88.3076118,46.5559565 89.3929653,45.1569817 L90.0928809,45.6998773 C89.0159688,47.0884662 87.9559204,48.5211842 86.9425928,49.9586607 Z M273.459512,46.4183919 C272.391898,45.0200642 271.280158,43.6299558 270.154143,42.286784 L270.833299,41.7177205 C271.967534,43.071275 273.087925,44.4717662 274.163761,45.8806892 L273.459512,46.4183919 Z M93.4335134,41.590545 L92.7591154,41.0160727 C93.9052492,39.6698715 95.0998263,38.3299449 96.3095478,37.0334908 L96.9571245,37.6378044 C95.756704,38.9245292 94.571209,40.2545107 93.4335134,41.590545 Z M266.664056,38.3089636 C265.474018,37.0135913 264.239423,35.7296835 262.995311,34.4933594 L263.619965,33.864813 C264.873591,35.1108727 266.117271,36.4042973 267.316391,37.7094021 L266.664056,38.3089636 Z M100.655933,33.8509725 L100.036472,33.2176677 C101.303294,31.9783173 102.614242,30.7530232 103.932536,29.5759631 L104.522575,30.2369489 C103.214231,31.4049268 101.913238,32.62092 100.655933,33.8509725 Z M259.156997,30.8477592 C257.852758,29.664859 256.506123,28.4981785 255.154732,27.380173 L255.719687,26.6975556 C257.081026,27.8240215 258.438042,28.9995494 259.752232,30.191535 L259.156997,30.8477592 Z M108.548854,26.8026681 L107.989523,26.1157238 C109.359732,24.9998754 110.775796,23.8993807 112.198565,22.8447409 L112.726317,23.5563432 C111.314145,24.6031951 109.908683,25.6952548 108.548854,26.8026681 Z M250.998466,24.0975036 C249.591256,23.0378897 248.143416,21.9981753 246.695126,21.0073421 L247.195193,20.276275 C248.654745,21.2744646 250.113402,22.3219637 251.53141,23.3897969 L250.998466,24.0975036 Z M117.04588,20.5048958 L116.551437,19.7699363 C118.017895,18.7832144 119.527613,17.8170359 121.038845,16.8975815 L121.499103,17.6546009 C119.999562,18.5669209 118.501308,19.5259618 117.04588,20.5048958 Z M242.254221,18.1168262 C240.757049,17.1902343 239.219647,16.2869996 237.684836,15.4317801 L238.115691,14.6578876 C239.66261,15.5195943 241.211692,16.4299666 242.720529,17.3632678 L242.254221,18.1168262 Z M126.076926,15.0115109 L125.651695,14.2341607 C127.203157,13.3852127 128.793986,12.5615729 130.379838,11.7857358 L130.769162,12.5816882 C129.195428,13.3514758 127.616713,14.1688409 126.076932,15.0115141 L126.076926,15.0115109 Z M232.995623,12.9589036 C231.419288,12.1735465 229.804454,11.4147951 228.196108,10.7038432 L228.554287,9.89361255 C230.175176,10.6099732 231.802556,11.3745647 233.391016,12.1659775 L232.995623,12.9589036 Z M135.566088,10.3701067 L135.213969,9.55728428 C136.835305,8.85455165 138.493821,8.18058499 140.143261,7.55398635 L140.457751,8.38238448 C138.820854,9.00400903 137.175091,9.67278272 135.566088,10.3701067 Z M223.296236,8.67156677 C221.655865,8.03545456 219.977022,7.42853656 218.305951,6.86790804 L218.587995,6.02783286 C220.27161,6.59300087 221.963447,7.20445836 223.616347,7.84576354 L223.296236,8.67156677 Z M145.448033,6.61765877 L145.172047,5.77585154 C146.855664,5.22388008 148.573453,4.70412599 150.277402,4.2315274 L150.514239,5.08501485 C148.823274,5.55415252 147.118673,6.0697922 145.448033,6.61765877 Z M213.249912,5.30044233 C211.560238,4.81876158 209.836825,4.37017057 208.12768,3.96721872 L208.330996,3.10508054 C210.053543,3.51105872 211.789934,3.96311066 213.493017,4.44825233 L213.249912,5.30044233 Z M155.645977,3.78747905 L155.448721,2.92382771 C157.174742,2.52951706 158.932967,2.17026612 160.674332,1.85621022 L160.831793,2.72786515 C159.103403,3.03976075 157.358792,3.39620742 155.645977,3.78747905 Z M202.949227,2.87191701 C201.224079,2.54812865 199.466928,2.26004079 197.72621,2.01561577 L197.849065,1.13833645 C199.603192,1.38469336 201.374189,1.67495739 203.112744,2.00112494 L202.949227,2.87191701 Z M166.061082,1.90790521 L165.943851,1.02975986 C167.697544,0.795730302 169.481087,0.598904893 171.244731,0.445339455 L171.321731,1.32780858 C169.571499,1.48051117 167.801797,1.6756077 166.061082,1.90790521 Z M192.469022,1.3996188 C190.723967,1.23523599 188.94779,1.10848875 187.189336,1.02348515 L187.232596,0.138427463 C189.004024,0.224293919 190.793624,0.351919871 192.552078,0.517584271 L192.469022,1.3996188 Z M176.604443,0.988013048 L176.567242,0.102955366 C178.195488,0.0350374986 179.854879,0.000431425967 181.499995,0 L181.900999,0.000634449952 L181.898404,0.886567673 L181.499995,0.885917362 C179.867422,0.886358305 178.220146,0.920748665 176.604443,0.988013048 Z" id="Shape" fill="#3F3D56"></path>
            <path d="M38.2234344,199.902088 C35.6519016,209.843212 26.8438329,216 26.8438329,216 C26.8438329,216 22.2050308,206.039042 24.7765637,196.097912 C27.3480966,186.156782 36.1561806,180 36.1561806,180 C36.1561806,180 40.7949673,189.960964 38.2234344,199.902088 Z" id="Path" fill="#2E3643"></path>
            <path d="M14.7765638,199.902088 C17.348097,209.843212 26.1561667,216 26.1561667,216 C26.1561667,216 30.7949694,206.039042 28.2234362,196.097912 C25.651903,186.156782 16.8438333,180 16.8438333,180 C16.8438333,180 12.2050306,189.960964 14.7765638,199.902088 Z" id="Path" fill="#2E3643"></path>
            <path d="M17.9433499,197.783425 C25.1230528,204.963125 26,216 26,216 C26,216 15.2363531,215.396274 8.05665013,208.216575 C0.876947214,201.036875 0,190 0,190 C0,190 10.7636407,190.603723 17.9433499,197.783425 Z" id="Path" fill="#3F3D56"></path>
            <path d="M35.0566501,197.783425 C27.8769503,204.963125 27,216 27,216 C27,216 37.7636501,215.396274 44.9433499,208.216575 C52.1230497,201.036875 53,190 53,190 C53,190 42.2363531,190.603723 35.0566501,197.783425 Z" id="Path" fill="#3F3D56"></path>
            <ellipse id="Oval" fill="#3F3D56" cx="314" cy="261" rx="27" ry="4"></ellipse>
            <path d="M328.964581,238.430444 C325.535873,251.132993 313.791773,259 313.791773,259 C313.791773,259 307.60671,246.272109 311.035418,233.569559 C314.464126,220.86701 326.208226,213 326.208226,213 C326.208226,213 332.393292,225.727894 328.964581,238.430444 Z" id="Path" fill="#2E3643"></path>
            <path d="M298.035417,238.430444 C301.464125,251.132993 313.208225,259 313.208225,259 C313.208225,259 319.39329,246.272109 315.964583,233.569559 C312.535875,220.86701 300.791775,213 300.791775,213 C300.791775,213 294.60671,225.727894 298.035417,238.430444 Z" id="Path" fill="#2E3643"></path>
            <path d="M303.464381,235.878963 C312.853223,244.99165 314,259 314,259 C314,259 299.924461,258.233736 290.535619,249.121037 C281.146777,240.008337 280,226 280,226 C280,226 294.075539,226.766264 303.464381,235.878963 Z" id="Path" fill="#3F3D56"></path>
            <path d="M324.535621,235.878963 C315.14678,244.99165 314,259 314,259 C314,259 328.07554,258.233736 337.464379,249.121037 C346.853217,240.008337 348,226 348,226 C348,226 333.92446,226.766264 324.535621,235.878963 Z" id="Path" fill="#3F3D56"></path>
            <ellipse id="Oval" fill="#2E3643" cx="138" cy="238.5" rx="111" ry="17.5"></ellipse>
        </g>
        <path d="M66,193 L212,193 C213.656854,193 215,194.343146 215,196 L215,233 C215,234.656854 213.656854,236 212,236 L66,236 C64.3431458,236 63,234.656854 63,233 L63,196 C63,194.343146 64.3431458,193 66,193 Z M74.6475096,208.90411 C76.5773322,208.90411 78.1417625,207.321773 78.1417625,205.369863 C78.1417625,203.417953 76.5773322,201.835616 74.6475096,201.835616 C72.717687,201.835616 71.1532567,203.417953 71.1532567,205.369863 C71.1532567,207.321773 72.717687,208.90411 74.6475096,208.90411 Z M87.4597701,208.90411 C89.3895927,208.90411 90.954023,207.321773 90.954023,205.369863 C90.954023,203.417953 89.3895927,201.835616 87.4597701,201.835616 C85.5299475,201.835616 83.9655172,203.417953 83.9655172,205.369863 C83.9655172,207.321773 85.5299475,208.90411 87.4597701,208.90411 Z M141.149371,201.6 C139.170351,201.6 137.566038,203.204313 137.566038,205.183333 C137.566038,207.162354 139.170351,208.766667 141.149371,208.766667 L201.378931,208.766667 C203.357951,208.766667 204.962264,207.162354 204.962264,205.183333 C204.962264,203.204313 203.357951,201.6 201.378931,201.6 L141.149371,201.6 Z" id="Combined-Shape-Copy" fill="#3F3D56"></path>
        <rect id="Rectangle-Copy-7" fill="#FFFFFF" x="76" y="88" width="131" height="95" rx="11"></rect>
        <path d="M84,84 L196,84 C202.075132,84 207,88.9248678 207,95 L207,177 C207,183.075132 202.075132,188 196,188 L84,188 C77.9248678,188 73,183.075132 73,177 L73,95 C73,88.9248678 77.9248678,84 84,84 Z M87.3225806,88.3333333 C81.7997331,88.3333333 77.3225806,92.8104858 77.3225806,98.3333333 L77.3225806,173.666667 C77.3225806,179.189514 81.7997331,183.666667 87.3225806,183.666667 L192.677419,183.666667 C198.200267,183.666667 202.677419,179.189514 202.677419,173.666667 L202.677419,98.3333333 C202.677419,92.8104858 198.200267,88.3333333 192.677419,88.3333333 L87.3225806,88.3333333 Z" id="Combined-Shape-Copy-2" fill="#3F3D56"></path>
        <g id="Group-2-Copy" transform="translate(101.000000, 95.000000)" fill-rule="nonzero">
            <path d="M58.1054495,55.8775405 C54.1379417,70.1566123 40.5483399,79 40.5483399,79 C40.5483399,79 33.3913354,64.6924404 37.35884,50.4133686 C41.3263446,36.1342968 54.9159496,27.2909091 54.9159496,27.2909091 C54.9159496,27.2909091 62.0729447,41.5984687 58.1054495,55.8775405 Z" id="Path" fill="#2E3643"></path>
            <path d="M21.4481266,55.8775283 C25.4156315,70.1566001 39.0052312,79 39.0052312,79 C39.0052312,79 46.1622363,64.6924404 42.1947313,50.4133686 C38.2272264,36.1342968 24.6376204,27.2909091 24.6376204,27.2909091 C24.6376204,27.2909091 17.4806216,41.5984565 21.4481266,55.8775283 Z" id="Path" fill="#2E3643"></path>
            <path d="M28.3984251,52.834385 C39.1827711,63.147043 40.5,79 40.5,79 C40.5,79 24.3323495,78.1328338 13.5480035,67.8201605 C2.76365752,57.5074872 1.44642857,41.6545455 1.44642857,41.6545455 C1.44642857,41.6545455 17.6140791,42.5217178 28.3984251,52.834385 Z" id="Path" fill="#3F3D56"></path>
            <path d="M52.6015771,52.834385 C41.8172319,63.147043 40.5,79 40.5,79 C40.5,79 56.6676493,78.1328338 67.4519975,67.8201605 C78.2363457,57.5074872 79.5535714,41.6545455 79.5535714,41.6545455 C79.5535714,41.6545455 63.3859222,42.5217178 52.6015771,52.834385 Z" id="Path" fill="#3F3D56"></path>
            <ellipse id="Oval" fill="#185E2D" opacity="0.303827195" cx="39.7767857" cy="22.2636364" rx="3.61607143" ry="3.59090909"></ellipse>
            <path d="M39.7769231,31.6 C35.9743113,31.6 32.5461292,29.3253013 31.0909327,25.8365923 C29.6357361,22.3478833 30.4401013,18.3322055 33.1289538,15.6620633 C35.8178064,12.991921 39.861623,12.193153 43.3747782,13.6382236 C46.8879334,15.0832942 49.1785714,18.4876214 49.1785714,22.2637728 C49.1727631,27.4176377 44.9669023,31.594232 39.7769231,31.6 Z M39.7769231,13.6457258 C36.2668204,13.6457245 33.1023442,15.7454454 31.7590855,18.9657915 C30.4158267,22.1861376 31.1583172,25.8929168 33.6403346,28.3576632 C36.1223521,30.8224096 39.8551055,31.5597335 43.0980174,30.2258218 C46.3409292,28.89191 48.4553633,25.7494538 48.455362,22.263776 C48.4498831,17.5064138 44.5676213,13.6511666 39.7769231,13.6457258 Z" id="Shape" fill="#2F2E41"></path>
            <path d="M40.5005919,77.5636364 C24.1201104,77.5636364 9.35255656,68.1148878 3.08401767,53.6233274 C-3.18452122,39.1317669 0.280436238,22.4512593 11.8631858,11.3598991 C23.4459354,0.268538943 40.8654528,-3.04942032 55.9990444,2.95318056 C71.132636,8.95578144 81,23.096833 81,38.782385 C80.9749793,60.1907466 62.8574253,77.5396771 40.5005919,77.5636364 Z M40.5005636,5.74545455 C25.2901139,5.74544914 11.5773802,14.4942884 5.75659052,27.9124012 C-0.0641991828,41.3305139 3.15326042,56.7754316 13.9086725,67.0452112 C24.6640846,77.3149909 40.8393542,80.3871746 54.8919763,74.8292074 C68.9445983,69.2712402 78.1071485,56.177669 78.1071429,41.6540073 C78.0834009,21.831659 61.2602616,5.76812448 40.5005636,5.74545455 Z" id="Shape-Copy" fill="#2F2E41"></path>
        </g>
    </g>
</svg>