<?xml version="1.0" encoding="UTF-8"?>
<svg width="17px" height="17px" viewBox="0 0 17 17" version="1.1" xmlns="http://www.w3.org/2000/svg" xmlns:xlink="http://www.w3.org/1999/xlink">
    <!-- Generator: Sketch 53.2 (72643) - https://sketchapp.com -->
    <title>safari-pinned-tab</title>
    <desc>Created with Sketch.</desc>
    <g id="safari-pinned-tab" stroke="none" stroke-width="1" fill="none" fill-rule="evenodd">
        <path d="M8.5,17 C3.80557963,17 0,13.1944204 0,8.5 C0,3.80557963 3.80557963,0 8.5,0 C13.1944204,0 17,3.80557963 17,8.5 C17,13.1944204 13.1944204,17 8.5,17 Z M8.5,16 C12.6421356,16 16,12.6421356 16,8.5 C16,4.35786438 12.6421356,1 8.5,1 C4.35786438,1 1,4.35786438 1,8.5 C1,12.6421356 4.35786438,16 8.5,16 Z" id="Oval-Copy" fill="#000000" fill-rule="nonzero"></path>
        <circle id="Oval-Copy-2" fill="#0191FF" cx="8.5" cy="8.5" r="6.5"></circle>
        <polygon id="T-Copy" fill="#FFFFFF" fill-rule="nonzero" points="5 6.34153846 5 5 12 5 12 6.34153846 9.20525956 6.34153846 9.20525956 12 7.78278689 12 7.78278689 6.34153846"></polygon>
    </g>
</svg>