<?xml version="1.0" encoding="UTF-8"?>
<svg width="52px" height="52px" viewBox="0 0 52 52" version="1.1" xmlns="http://www.w3.org/2000/svg" xmlns:xlink="http://www.w3.org/1999/xlink">
    <!-- Generator: Sketch 52.5 (67469) - http://www.bohemiancoding.com/sketch -->
    <title>logothe-o</title>
    <desc>Created with Sketch.</desc>
    <g id="Page-1" stroke="none" stroke-width="1" fill="none" fill-rule="evenodd">
        <g id="iPhone-SE-Copy-4" transform="translate(-38.000000, -45.000000)" fill="#2F3542" fill-rule="nonzero">
            <g id="logothe-o" transform="translate(38.000000, 45.000000)">
                <path d="M26.0240537,51.9996524 C11.8424929,52.0724002 0.241531101,40.7183219 0.00370030354,26.5330458 C-0.244609205,11.2709672 12.0417453,0.216890022 25.5398502,0.0032606659 C39.7804005,-0.22030494 51.7737497,11.0796944 51.9947452,25.5518412 C52.135089,32.5273081 49.4592101,39.2649638 44.5718527,44.2421091 C39.6844953,49.2192544 32.9981982,52.0157716 26.0240537,51.9996524 Z M21.6666667,29.3217213 C21.6666667,25.3600663 21.6666667,21.4009282 21.6666667,17.4392732 C21.6666667,16.8100395 21.4781501,16.6061678 20.8310798,16.6112017 C17.7358417,16.6414049 14.638056,16.6263033 11.5402704,16.6263033 C10.1213012,16.6263033 10.1136586,16.6263033 10.1111111,18.063473 C10.1111111,23.3238662 10.1111111,28.5842594 10.1111111,33.8446527 C10.1447041,37.4195504 12.5515832,40.5478805 16.0290025,41.5364047 C17.5880854,41.9793852 19.1777386,41.8736739 20.7622967,41.8862586 C21.6462865,41.8862586 21.6539291,41.8862586 21.6564766,41.0179162 L21.6666667,29.3217213 Z M30.343516,29.2466349 C30.343516,33.2093655 30.343516,37.1720962 30.343516,41.1323108 C30.343516,41.7185434 30.5288626,41.9097609 31.1052144,41.8871167 C32.3264708,41.8217002 33.5578832,41.8619565 34.7740617,41.7512516 C38.6358725,41.4015249 41.8832467,37.8539375 41.8832467,33.9968796 C41.8959417,28.7786552 41.8832467,23.5604309 41.8832467,18.3396905 C41.8832467,18.025188 41.8832467,17.7106856 41.8578567,17.3961832 C41.8299278,16.857755 41.6039573,16.606153 40.9895206,16.6111851 C37.7108322,16.6413773 34.4321437,16.6413773 31.1534553,16.6111851 C30.5085507,16.6111851 30.3308211,16.7998865 30.3333601,17.4339235 C30.35875,21.3664619 30.346055,25.3065484 30.346055,29.2466349 L30.343516,29.2466349 Z" id="Shape"></path>
            </g>
        </g>
    </g>
</svg>